<svg xmlns="http://www.w3.org/2000/svg" xmlns:xlink="http://www.w3.org/1999/xlink" width="500" zoomAndPan="magnify" viewBox="0 0 375 374.999991" height="500" preserveAspectRatio="xMidYMid meet" version="1.0"><path fill="#000000" d="M 153.636719 297.054688 C 150.730469 297.054688 147.828125 296.96875 144.929688 296.789062 C 142.027344 296.613281 139.136719 296.347656 136.253906 295.996094 C 133.371094 295.640625 130.503906 295.199219 127.644531 294.667969 C 124.789062 294.136719 121.953125 293.519531 119.136719 292.8125 C 116.316406 292.109375 113.523438 291.320312 110.753906 290.441406 C 107.984375 289.566406 105.242188 288.605469 102.535156 287.5625 C 99.824219 286.515625 97.148438 285.390625 94.503906 284.183594 C 91.863281 282.972656 89.261719 281.683594 86.699219 280.316406 C 84.136719 278.949219 81.621094 277.5 79.144531 275.980469 C 76.671875 274.457031 74.246094 272.859375 71.871094 271.1875 C 69.496094 269.515625 67.175781 267.769531 64.90625 265.957031 C 62.636719 264.140625 60.425781 262.257812 58.273438 260.308594 C 56.121094 258.359375 54.03125 256.34375 52 254.265625 C 49.972656 252.1875 48.007812 250.046875 46.109375 247.847656 C 44.214844 245.648438 42.386719 243.394531 40.625 241.082031 C 38.867188 238.773438 37.179688 236.410156 35.566406 233.992188 C 33.949219 231.578125 32.410156 229.117188 30.949219 226.605469 C 29.484375 224.097656 28.101562 221.546875 26.792969 218.949219 C 25.488281 216.355469 24.261719 213.722656 23.117188 211.054688 C 21.972656 208.386719 20.910156 205.683594 19.933594 202.949219 C 18.953125 200.210938 18.058594 197.449219 17.25 194.660156 C 16.441406 191.871094 15.71875 189.058594 15.082031 186.222656 C 14.445312 183.390625 13.894531 180.539062 13.433594 177.671875 C 12.972656 174.804688 12.597656 171.921875 12.3125 169.03125 C 12.03125 166.140625 11.832031 163.246094 11.726562 160.34375 C 11.621094 157.4375 11.601562 154.535156 11.671875 151.632812 C 11.746094 148.726562 11.90625 145.828125 12.152344 142.933594 C 12.402344 140.039062 12.742188 137.15625 13.167969 134.285156 C 13.59375 131.410156 14.109375 128.550781 14.710938 125.710938 C 15.3125 122.867188 16 120.046875 16.773438 117.25 C 17.550781 114.449219 18.410156 111.675781 19.355469 108.929688 C 20.300781 106.183594 21.328125 103.46875 22.441406 100.785156 C 23.554688 98.101562 24.746094 95.453125 26.019531 92.84375 C 27.296875 90.234375 28.648438 87.664062 30.082031 85.136719 C 31.511719 82.609375 33.023438 80.128906 34.605469 77.695312 C 36.191406 75.257812 37.847656 72.875 39.578125 70.542969 C 41.308594 68.210938 43.109375 65.933594 44.980469 63.710938 C 46.851562 61.488281 48.789062 59.324219 50.792969 57.222656 C 52.796875 55.117188 54.863281 53.078125 56.992188 51.101562 C 59.121094 49.125 61.308594 47.214844 63.554688 45.375 C 65.800781 43.53125 68.101562 41.757812 70.453125 40.058594 C 72.808594 38.359375 75.214844 36.730469 77.667969 35.175781 C 80.125 33.625 82.625 32.148438 85.167969 30.746094 C 87.714844 29.347656 90.300781 28.027344 92.925781 26.785156 C 95.554688 25.546875 98.214844 24.386719 100.914062 23.308594 C 103.609375 22.230469 106.339844 21.238281 109.097656 20.328125 C 111.855469 19.417969 114.640625 18.589844 117.449219 17.851562 C 120.257812 17.113281 123.085938 16.460938 125.9375 15.894531 C 128.785156 15.328125 131.648438 14.851562 134.527344 14.460938 C 137.40625 14.074219 140.292969 13.773438 143.191406 13.558594 C 146.089844 13.347656 148.988281 13.222656 151.894531 13.191406 C 154.796875 13.15625 157.703125 13.210938 160.601562 13.355469 C 163.503906 13.5 166.398438 13.730469 169.285156 14.054688 C 172.171875 14.375 175.046875 14.785156 177.910156 15.28125 C 180.769531 15.78125 183.613281 16.367188 186.441406 17.039062 C 189.265625 17.710938 192.070312 18.46875 194.847656 19.316406 C 197.628906 20.160156 200.378906 21.089844 203.101562 22.101562 C 205.824219 23.117188 208.511719 24.214844 211.164062 25.390625 C 213.820312 26.570312 216.4375 27.828125 219.015625 29.167969 C 221.59375 30.507812 224.125 31.925781 226.617188 33.421875 C 229.109375 34.914062 231.550781 36.484375 233.945312 38.132812 C 236.339844 39.777344 238.679688 41.492188 240.96875 43.28125 C 243.257812 45.070312 245.488281 46.925781 247.664062 48.851562 C 249.839844 50.777344 251.953125 52.769531 254.003906 54.824219 C 256.472656 57.289062 258.84375 59.839844 261.121094 62.476562 C 263.398438 65.113281 265.578125 67.832031 267.65625 70.632812 C 269.734375 73.429688 271.703125 76.300781 273.570312 79.246094 C 275.4375 82.1875 277.191406 85.199219 278.835938 88.269531 C 280.480469 91.34375 282.007812 94.472656 283.421875 97.660156 C 284.835938 100.84375 286.132812 104.078125 287.308594 107.359375 C 288.480469 110.640625 289.535156 113.960938 290.464844 117.320312 C 291.394531 120.679688 292.203125 124.066406 292.882812 127.488281 C 293.5625 130.90625 294.117188 134.34375 294.542969 137.800781 C 294.972656 141.261719 295.273438 144.730469 295.441406 148.214844 C 295.613281 151.695312 295.65625 155.175781 295.574219 158.660156 C 295.488281 162.144531 295.273438 165.621094 294.933594 169.089844 C 294.589844 172.558594 294.121094 176.011719 293.527344 179.445312 C 292.929688 182.878906 292.210938 186.289062 291.363281 189.667969 C 290.515625 193.050781 289.546875 196.394531 288.453125 199.703125 C 287.359375 203.015625 286.144531 206.277344 284.808594 209.5 C 283.476562 212.71875 282.023438 215.886719 280.457031 218.996094 C 278.890625 222.109375 277.210938 225.160156 275.417969 228.152344 C 273.625 231.140625 271.722656 234.058594 269.714844 236.910156 C 267.707031 239.757812 265.597656 242.53125 263.386719 245.222656 C 261.175781 247.917969 258.867188 250.523438 256.460938 253.046875 C 254.058594 255.570312 251.5625 258.003906 248.980469 260.34375 C 246.398438 262.683594 243.730469 264.925781 240.984375 267.066406 C 238.234375 269.210938 235.410156 271.25 232.511719 273.183594 C 229.613281 275.121094 226.644531 276.945312 223.613281 278.660156 C 220.578125 280.378906 217.484375 281.980469 214.335938 283.46875 C 211.183594 284.957031 207.980469 286.328125 204.726562 287.582031 C 201.476562 288.832031 198.179688 289.964844 194.84375 290.972656 C 191.507812 291.984375 188.140625 292.867188 184.738281 293.628906 C 181.335938 294.390625 177.914062 295.027344 174.464844 295.535156 C 171.015625 296.042969 167.554688 296.425781 164.078125 296.679688 C 160.601562 296.933594 157.121094 297.058594 153.636719 297.054688 Z M 153.636719 44.453125 C 151.519531 44.449219 149.40625 44.503906 147.292969 44.621094 C 145.179688 44.738281 143.074219 44.914062 140.96875 45.152344 C 138.867188 45.386719 136.773438 45.683594 134.6875 46.042969 C 132.601562 46.398438 130.527344 46.816406 128.46875 47.292969 C 126.40625 47.769531 124.359375 48.304688 122.328125 48.898438 C 120.296875 49.488281 118.285156 50.140625 116.292969 50.851562 C 114.296875 51.558594 112.328125 52.324219 110.378906 53.144531 C 108.425781 53.96875 106.503906 54.84375 104.605469 55.777344 C 102.703125 56.707031 100.832031 57.695312 98.988281 58.734375 C 97.148438 59.773438 95.335938 60.863281 93.554688 62.007812 C 91.773438 63.148438 90.027344 64.34375 88.316406 65.585938 C 86.605469 66.828125 84.929688 68.121094 83.292969 69.460938 C 81.652344 70.800781 80.054688 72.183594 78.496094 73.613281 C 76.9375 75.046875 75.421875 76.519531 73.945312 78.039062 C 72.472656 79.554688 71.042969 81.113281 69.660156 82.714844 C 68.273438 84.3125 66.9375 85.953125 65.644531 87.628906 C 64.355469 89.304688 63.113281 91.015625 61.917969 92.765625 C 60.726562 94.511719 59.585938 96.292969 58.496094 98.105469 C 57.402344 99.917969 56.367188 101.761719 55.378906 103.632812 C 54.394531 105.503906 53.464844 107.40625 52.589844 109.332031 C 51.710938 111.257812 50.890625 113.207031 50.128906 115.179688 C 49.363281 117.152344 48.65625 119.144531 48.003906 121.15625 C 47.355469 123.171875 46.761719 125.203125 46.230469 127.25 C 45.695312 129.296875 45.21875 131.355469 44.804688 133.433594 C 44.386719 135.507812 44.03125 137.589844 43.734375 139.6875 C 43.441406 141.78125 43.203125 143.882812 43.027344 145.992188 C 42.851562 148.097656 42.738281 150.210938 42.683594 152.328125 C 42.628906 154.441406 42.632812 156.554688 42.699219 158.671875 C 42.765625 160.785156 42.890625 162.898438 43.078125 165.003906 C 43.265625 167.113281 43.515625 169.210938 43.824219 171.304688 C 44.128906 173.398438 44.5 175.480469 44.925781 177.554688 C 45.351562 179.625 45.839844 181.683594 46.382812 183.730469 C 46.929688 185.773438 47.53125 187.800781 48.195312 189.808594 C 48.855469 191.820312 49.574219 193.808594 50.347656 195.777344 C 51.125 197.746094 51.957031 199.691406 52.84375 201.613281 C 53.730469 203.53125 54.671875 205.425781 55.664062 207.292969 C 56.660156 209.160156 57.707031 211 58.808594 212.804688 C 59.910156 214.613281 61.0625 216.386719 62.265625 218.128906 C 63.464844 219.867188 64.71875 221.574219 66.019531 223.242188 C 67.316406 224.910156 68.664062 226.542969 70.058594 228.132812 C 71.453125 229.726562 72.890625 231.277344 74.371094 232.785156 C 75.855469 234.296875 77.378906 235.761719 78.945312 237.183594 C 80.511719 238.605469 82.117188 239.984375 83.761719 241.3125 C 85.410156 242.644531 87.089844 243.925781 88.808594 245.160156 C 90.527344 246.394531 92.28125 247.578125 94.066406 248.710938 C 95.855469 249.84375 97.671875 250.925781 99.519531 251.953125 C 101.371094 252.984375 103.246094 253.957031 105.152344 254.878906 C 107.054688 255.800781 108.984375 256.667969 110.9375 257.480469 C 112.894531 258.289062 114.867188 259.042969 116.867188 259.742188 C 118.863281 260.441406 120.878906 261.078125 122.914062 261.660156 C 124.949219 262.242188 126.996094 262.765625 129.0625 263.230469 C 131.125 263.695312 133.199219 264.101562 135.289062 264.449219 C 137.375 264.792969 139.472656 265.078125 141.574219 265.304688 C 143.679688 265.53125 145.789062 265.695312 147.898438 265.800781 C 150.011719 265.90625 152.128906 265.949219 154.242188 265.933594 C 156.359375 265.917969 158.472656 265.839844 160.585938 265.703125 C 162.695312 265.566406 164.800781 265.367188 166.902344 265.109375 C 169 264.851562 171.09375 264.53125 173.175781 264.15625 C 175.253906 263.777344 177.324219 263.339844 179.382812 262.84375 C 181.4375 262.347656 183.480469 261.789062 185.503906 261.175781 C 187.527344 260.5625 189.535156 259.890625 191.519531 259.164062 C 193.507812 258.433594 195.472656 257.652344 197.414062 256.808594 C 199.355469 255.96875 201.269531 255.070312 203.160156 254.121094 C 205.050781 253.171875 206.910156 252.164062 208.742188 251.109375 C 210.578125 250.050781 212.375 248.941406 214.144531 247.78125 C 215.914062 246.621094 217.648438 245.410156 219.347656 244.148438 C 221.046875 242.886719 222.710938 241.582031 224.335938 240.226562 C 225.960938 238.871094 227.542969 237.46875 229.089844 236.023438 C 230.632812 234.578125 232.132812 233.085938 233.59375 231.554688 C 235.050781 230.023438 236.464844 228.449219 237.835938 226.835938 C 239.203125 225.222656 240.523438 223.570312 241.796875 221.882812 C 243.074219 220.191406 244.296875 218.46875 245.472656 216.710938 C 246.648438 214.949219 247.773438 213.15625 248.84375 211.335938 C 249.917969 209.511719 250.9375 207.65625 251.902344 205.773438 C 252.871094 203.894531 253.78125 201.984375 254.636719 200.050781 C 255.496094 198.117188 256.296875 196.160156 257.039062 194.179688 C 257.785156 192.199219 258.472656 190.199219 259.101562 188.179688 C 259.734375 186.15625 260.304688 184.121094 260.820312 182.070312 C 261.332031 180.015625 261.785156 177.953125 262.179688 175.871094 C 262.578125 173.792969 262.910156 171.707031 263.1875 169.609375 C 263.460938 167.511719 263.675781 165.40625 263.832031 163.296875 C 263.988281 161.1875 264.082031 159.074219 264.113281 156.957031 C 264.148438 154.84375 264.121094 152.726562 264.035156 150.613281 C 263.945312 148.5 263.796875 146.390625 263.589844 144.285156 C 263.382812 142.179688 263.113281 140.082031 262.785156 137.992188 C 262.457031 135.902344 262.066406 133.820312 261.621094 131.753906 C 261.171875 129.6875 260.664062 127.632812 260.097656 125.59375 C 259.535156 123.554688 258.910156 121.535156 258.230469 119.53125 C 257.546875 117.527344 256.808594 115.546875 256.015625 113.585938 C 255.21875 111.625 254.367188 109.6875 253.464844 107.777344 C 252.558594 105.863281 251.597656 103.980469 250.582031 102.121094 C 249.570312 100.265625 248.503906 98.4375 247.382812 96.644531 C 246.265625 94.847656 245.097656 93.085938 243.875 91.355469 C 242.65625 89.625 241.386719 87.933594 240.070312 86.277344 C 238.753906 84.621094 237.390625 83.003906 235.984375 81.425781 C 234.574219 79.847656 233.121094 78.3125 231.621094 76.816406 C 229.070312 74.261719 226.394531 71.839844 223.601562 69.542969 C 220.8125 67.25 217.914062 65.101562 214.910156 63.09375 C 211.90625 61.082031 208.8125 59.226562 205.628906 57.523438 C 202.441406 55.816406 199.179688 54.273438 195.84375 52.886719 C 192.507812 51.503906 189.109375 50.285156 185.652344 49.234375 C 182.199219 48.179688 178.699219 47.300781 175.15625 46.59375 C 171.613281 45.886719 168.042969 45.351562 164.449219 44.996094 C 160.851562 44.636719 157.25 44.457031 153.636719 44.453125 Z M 153.636719 44.453125 " fill-opacity="1" fill-rule="nonzero"/><path fill="#000000" d="M 354.84375 372 C 352.777344 371.992188 350.792969 371.589844 348.886719 370.792969 C 346.984375 369.992188 345.300781 368.863281 343.847656 367.398438 L 231.933594 255.566406 C 231.210938 254.839844 230.5625 254.050781 229.992188 253.199219 C 229.425781 252.347656 228.945312 251.449219 228.550781 250.5 C 228.160156 249.554688 227.863281 248.578125 227.664062 247.574219 C 227.464844 246.570312 227.363281 245.554688 227.363281 244.53125 C 227.363281 243.503906 227.464844 242.488281 227.664062 241.484375 C 227.863281 240.480469 228.160156 239.503906 228.550781 238.558594 C 228.945312 237.609375 229.425781 236.710938 229.992188 235.859375 C 230.5625 235.007812 231.210938 234.21875 231.933594 233.496094 C 232.660156 232.769531 233.449219 232.121094 234.300781 231.554688 C 235.152344 230.984375 236.050781 230.503906 236.996094 230.109375 C 237.945312 229.71875 238.921875 229.421875 239.925781 229.222656 C 240.929688 229.023438 241.945312 228.921875 242.96875 228.921875 C 243.996094 228.921875 245.007812 229.023438 246.015625 229.222656 C 247.019531 229.421875 247.996094 229.71875 248.941406 230.109375 C 249.890625 230.503906 250.789062 230.984375 251.640625 231.554688 C 252.492188 232.121094 253.28125 232.769531 254.003906 233.496094 L 365.839844 345.40625 C 366.378906 345.949219 366.875 346.527344 367.328125 347.144531 C 367.78125 347.757812 368.1875 348.402344 368.546875 349.078125 C 368.90625 349.753906 369.214844 350.453125 369.472656 351.171875 C 369.726562 351.890625 369.929688 352.628906 370.078125 353.378906 C 370.226562 354.128906 370.320312 354.882812 370.355469 355.648438 C 370.394531 356.414062 370.375 357.175781 370.300781 357.9375 C 370.222656 358.695312 370.09375 359.449219 369.90625 360.191406 C 369.722656 360.933594 369.484375 361.65625 369.191406 362.363281 C 368.898438 363.070312 368.554688 363.75 368.164062 364.40625 C 367.773438 365.0625 367.332031 365.6875 366.847656 366.277344 C 366.363281 366.871094 365.839844 367.425781 365.273438 367.9375 C 364.707031 368.453125 364.109375 368.925781 363.472656 369.351562 C 362.839844 369.777344 362.175781 370.15625 361.484375 370.484375 C 360.796875 370.8125 360.085938 371.089844 359.355469 371.3125 C 358.625 371.539062 357.878906 371.707031 357.125 371.824219 C 356.367188 371.9375 355.605469 371.996094 354.84375 372 Z M 354.84375 372 " fill-opacity="1" fill-rule="nonzero"/></svg>